<?xml version="1.0" encoding="UTF-8"?>
<svg version="1.1" xmlns="http://www.w3.org/2000/svg" width="256" height="256">
<path d="M0 0 C84.48 0 168.96 0 256 0 C256 84.48 256 168.96 256 256 C171.52 256 87.04 256 0 256 C0 171.52 0 87.04 0 0 Z M17 17 C17 90.26 17 163.52 17 239 C22.94 239 28.88 239 35 239 C35 226.13 35 213.26 35 200 C41.6 200 48.2 200 55 200 C55 194.72 55 189.44 55 184 C66.55 184 78.1 184 90 184 C90 178.06 90 172.12 90 166 C83.73 166 77.46 166 71 166 C71 159.4 71 152.8 71 146 C65.72 146 60.44 146 55 146 C55 121.25 55 96.5 55 71 C60.28 71 65.56 71 71 71 C71 65.72 71 60.44 71 55 C77.27 55 83.54 55 90 55 C90 48.4 90 41.8 90 35 C115.08 35 140.16 35 166 35 C166 41.6 166 48.2 166 55 C172.27 55 178.54 55 185 55 C185 60.28 185 65.56 185 71 C190.28 71 195.56 71 201 71 C201 95.75 201 120.5 201 146 C195.72 146 190.44 146 185 146 C185 152.6 185 159.2 185 166 C178.73 166 172.46 166 166 166 C166 171.94 166 177.88 166 184 C177.55 184 189.1 184 201 184 C201 189.28 201 194.56 201 200 C207.6 200 214.2 200 221 200 C221 212.87 221 225.74 221 239 C226.94 239 232.88 239 239 239 C239 165.74 239 92.48 239 17 C165.74 17 92.48 17 17 17 Z M91 56 C91 61.28 91 66.56 91 72 C84.73 72 78.46 72 72 72 C72 96.09 72 120.18 72 145 C78.27 145 84.54 145 91 145 C91 151.6 91 158.2 91 165 C97.6 165 104.2 165 111 165 C111 171.6 111 178.2 111 185 C104.4 185 97.8 185 91 185 C91 190.28 91 195.56 91 201 C79.45 201 67.9 201 56 201 C56 213.54 56 226.08 56 239 C103.52 239 151.04 239 200 239 C200 226.46 200 213.92 200 201 C188.45 201 176.9 201 165 201 C165 195.72 165 190.44 165 185 C158.4 185 151.8 185 145 185 C145 178.4 145 171.8 145 165 C151.6 165 158.2 165 165 165 C165 158.4 165 151.8 165 145 C171.27 145 177.54 145 184 145 C184 120.91 184 96.82 184 72 C177.73 72 171.46 72 165 72 C165 66.72 165 61.44 165 56 C140.58 56 116.16 56 91 56 Z " fill="#FFFFFF" transform="translate(0,0)"/>
</svg>
