<?xml version="1.0" encoding="UTF-8"?>
<svg version="1.1" xmlns="http://www.w3.org/2000/svg" width="256" height="256">
<path d="M0 0 C72.6 0 145.2 0 220 0 C220 5.61 220 11.22 220 17 C226.27 17 232.54 17 239 17 C239 23.27 239 29.54 239 36 C244.61 36 250.22 36 256 36 C256 108.6 256 181.2 256 256 C171.52 256 87.04 256 0 256 C0 171.52 0 87.04 0 0 Z M18 18 C18 90.6 18 163.2 18 238 C29.88 238 41.76 238 54 238 C54 202.03 54 166.06 54 129 C102.84 129 151.68 129 202 129 C202 164.97 202 200.94 202 238 C213.88 238 225.76 238 238 238 C238 171.67 238 105.34 238 37 C231.73 37 225.46 37 219 37 C219 30.73 219 24.46 219 18 C213.39 18 207.78 18 202 18 C202 42.09 202 66.18 202 91 C153.16 91 104.32 91 54 91 C54 66.91 54 42.82 54 18 C42.12 18 30.24 18 18 18 Z M73 18 C73 35.82 73 53.64 73 72 C96.43 72 119.86 72 144 72 C144 54.18 144 36.36 144 18 C120.57 18 97.14 18 73 18 Z M163 18 C163 35.82 163 53.64 163 72 C169.6 72 176.2 72 183 72 C183 54.18 183 36.36 183 18 C176.4 18 169.8 18 163 18 Z M73 148 C73 177.7 73 207.4 73 238 C109.3 238 145.6 238 183 238 C183 208.3 183 178.6 183 148 C146.7 148 110.4 148 73 148 Z " fill="#FFFFFF" transform="translate(0,0)"/>
<path d="M0 0 C24.09 0 48.18 0 73 0 C73 6.27 73 12.54 73 19 C48.91 19 24.82 19 0 19 C0 12.73 0 6.46 0 0 Z " fill="#FFFFFF" transform="translate(90,201)"/>
<path d="M0 0 C24.09 0 48.18 0 73 0 C73 6.27 73 12.54 73 19 C48.91 19 24.82 19 0 19 C0 12.73 0 6.46 0 0 Z " fill="#FFFFFF" transform="translate(90,165)"/>
</svg>
