<?xml version="1.0" encoding="UTF-8"?>
<svg version="1.1" xmlns="http://www.w3.org/2000/svg" width="256" height="256">
<path d="M0 0 C49.17 0 98.34 0 149 0 C149 84.48 149 168.96 149 256 C76.07 256 3.14 256 -72 256 C-72 195.28 -72 134.56 -72 72 C-66.39 72 -60.78 72 -55 72 C-55 66.39 -55 60.78 -55 55 C-48.73 55 -42.46 55 -36 55 C-36 48.73 -36 42.46 -36 36 C-29.73 36 -23.46 36 -17 36 C-17 29.73 -17 23.46 -17 17 C-11.39 17 -5.78 17 0 17 C0 11.39 0 5.78 0 0 Z M20 18 C20 30.21 20 42.42 20 55 C50.03 55 80.06 55 111 55 C111 60.94 111 66.88 111 73 C80.97 73 50.94 73 20 73 C20 78.94 20 84.88 20 91 C50.03 91 80.06 91 111 91 C111 97.6 111 104.2 111 111 C62.49 111 13.98 111 -36 111 C-36 104.73 -36 98.46 -36 92 C-41.94 92 -47.88 92 -54 92 C-54 140.51 -54 189.02 -54 239 C6.39 239 66.78 239 129 239 C129 166.07 129 93.14 129 18 C93.03 18 57.06 18 20 18 Z M-16 37 C-16 43.27 -16 49.54 -16 56 C-22.27 56 -28.54 56 -35 56 C-35 61.28 -35 66.56 -35 72 C-23.45 72 -11.9 72 0 72 C0 60.45 0 48.9 0 37 C-5.28 37 -10.56 37 -16 37 Z " fill="#FFFFFF" transform="translate(89,0)"/>
<path d="M0 0 C48.51 0 97.02 0 147 0 C147 6.6 147 13.2 147 20 C98.49 20 49.98 20 0 20 C0 13.4 0 6.8 0 0 Z " fill="#FFFFFF" transform="translate(53,201)"/>
<path d="M0 0 C48.51 0 97.02 0 147 0 C147 6.6 147 13.2 147 20 C98.49 20 49.98 20 0 20 C0 13.4 0 6.8 0 0 Z " fill="#FFFFFF" transform="translate(53,165)"/>
<path d="M0 0 C48.51 0 97.02 0 147 0 C147 5.94 147 11.88 147 18 C98.49 18 49.98 18 0 18 C0 12.06 0 6.12 0 0 Z " fill="#FFFFFF" transform="translate(53,129)"/>
</svg>
