<?xml version="1.0" encoding="UTF-8"?>
<svg version="1.1" xmlns="http://www.w3.org/2000/svg" width="256" height="256">
<path d="M0 0 C24.75 0 49.5 0 75 0 C75 5.28 75 10.56 75 16 C86.55 16 98.1 16 110 16 C110 22.27 110 28.54 110 35 C116.27 35 122.54 35 129 35 C129 41.6 129 48.2 129 55 C134.61 55 140.22 55 146 55 C146 66.55 146 78.1 146 90 C151.94 90 157.88 90 164 90 C164 114.42 164 138.84 164 164 C158.06 164 152.12 164 146 164 C146 175.88 146 187.76 146 200 C140.39 200 134.78 200 129 200 C129 206.27 129 212.54 129 219 C122.73 219 116.46 219 110 219 C110 225.27 110 231.54 110 238 C98.45 238 86.9 238 75 238 C75 243.28 75 248.56 75 254 C50.25 254 25.5 254 0 254 C0 248.72 0 243.44 0 238 C-12.54 238 -25.08 238 -38 238 C-38 231.73 -38 225.46 -38 219 C-43.28 219 -48.56 219 -54 219 C-54 212.73 -54 206.46 -54 200 C-60.6 200 -67.2 200 -74 200 C-74 188.12 -74 176.24 -74 164 C-79.94 164 -85.88 164 -92 164 C-92 139.58 -92 115.16 -92 90 C-86.06 90 -80.12 90 -74 90 C-74 78.45 -74 66.9 -74 55 C-67.4 55 -60.8 55 -54 55 C-54 48.4 -54 41.8 -54 35 C-48.72 35 -43.44 35 -38 35 C-38 28.73 -38 22.46 -38 16 C-25.46 16 -12.92 16 0 16 C0 10.72 0 5.44 0 0 Z M-18 36 C-18 42.6 -18 49.2 -18 56 C-24.27 56 -30.54 56 -37 56 C-37 61.28 -37 66.56 -37 72 C-42.28 72 -47.56 72 -53 72 C-53 108.63 -53 145.26 -53 183 C-47.72 183 -42.44 183 -37 183 C-37 188.28 -37 193.56 -37 199 C-30.73 199 -24.46 199 -18 199 C-18 205.27 -18 211.54 -18 218 C17.64 218 53.28 218 90 218 C90 211.73 90 205.46 90 199 C96.27 199 102.54 199 109 199 C109 193.72 109 188.44 109 183 C115.27 183 121.54 183 128 183 C128 146.37 128 109.74 128 72 C121.73 72 115.46 72 109 72 C109 66.72 109 61.44 109 56 C102.73 56 96.46 56 90 56 C90 49.4 90 42.8 90 36 C54.36 36 18.72 36 -18 36 Z " fill="#FFFFFF" transform="translate(92,1)"/>
<path d="M0 0 C18.15 0 36.3 0 55 0 C55 24.42 55 48.84 55 74 C61.6 74 68.2 74 75 74 C75 79.61 75 85.22 75 91 C50.25 91 25.5 91 0 91 C0 85.39 0 79.78 0 74 C5.61 74 11.22 74 17 74 C17 56.18 17 38.36 17 20 C11.39 20 5.78 20 0 20 C0 13.4 0 6.8 0 0 Z " fill="#FFFFFF" transform="translate(92,110)"/>
<path d="M0 0 C12.54 0 25.08 0 38 0 C38 11.88 38 23.76 38 36 C25.46 36 12.92 36 0 36 C0 24.12 0 12.24 0 0 Z " fill="#FFFFFF" transform="translate(109,56)"/>
</svg>
